<svg width="500" height="500" viewBox="0 0 500 500" fill="none" xmlns="http://www.w3.org/2000/svg">
<path d="M444.847 156.54C431.934 163.226 422.032 174.736 414.912 187.411C407.792 200.085 403.203 213.992 398.658 227.8L394.681 299.008C409.706 273.459 421.766 243.425 425.025 213.969C421.692 213.672 418.359 213.376 415.026 213.079C421.73 212.056 427.358 207.201 430.938 201.444C434.518 195.687 436.361 189.049 438.16 182.513C434.094 183.117 430.027 183.721 425.961 184.326C435.512 177.953 442.438 167.764 444.847 156.54Z" fill="#E0E0E0"/>
<path d="M392.455 315.692C392.455 315.692 359.842 276.677 360.219 239.431H373.393C373.393 239.431 359.083 230.026 360.216 224.759C361.348 219.492 361.725 199.553 361.725 199.553L373.77 202.563C373.77 202.563 364.736 198.048 363.607 190.9C362.478 183.752 366.242 150.645 366.242 150.645C366.242 150.645 380.922 166.07 385.439 181.871C389.956 197.672 401.812 216.107 398.331 264.262C394.848 312.417 392.455 315.692 392.455 315.692Z" fill="#EBEBEB"/>
<path d="M408.989 319.375C408.989 319.375 444.322 295.849 452.172 265.823L441.58 262.942C441.58 262.942 455.144 258.51 455.386 254.027C455.629 249.545 459.691 233.432 459.691 233.432L449.348 233.218C449.348 233.218 457.599 231.564 460.072 226.064C462.545 220.564 466.765 193.124 466.765 193.124C466.765 193.124 451.586 202.315 444.496 214.031C437.406 225.747 423.838 237.975 416.096 277.452C408.355 316.929 408.989 319.375 408.989 319.375Z" fill="#EBEBEB"/>
<path d="M375.15 184.662C375.159 184.66 375.197 184.797 375.263 185.068C375.332 185.362 375.424 185.761 375.543 186.27C375.784 187.356 376.128 188.911 376.569 190.902C377.018 192.912 377.542 195.378 378.11 198.248C378.688 201.117 379.362 204.38 380.022 208.004C381.415 215.238 382.885 223.887 384.4 233.509C385.868 243.138 387.335 253.747 388.64 264.912C389.919 276.084 390.912 286.75 391.681 296.461C392.402 306.176 392.945 314.932 393.241 322.293C393.426 325.972 393.514 329.303 393.607 332.227C393.709 335.151 393.763 337.671 393.784 339.73C393.809 341.768 393.828 343.361 393.842 344.473C393.843 344.995 393.843 345.404 393.844 345.706C393.841 345.984 393.836 346.126 393.827 346.126C393.818 346.126 393.806 345.984 393.791 345.706C393.778 345.404 393.76 344.996 393.737 344.474C393.701 343.363 393.648 341.771 393.581 339.734C393.528 337.676 393.446 335.158 393.316 332.236C393.196 329.314 393.082 325.985 392.874 322.309C392.531 314.954 391.951 306.204 391.204 296.497C390.409 286.793 389.402 276.135 388.124 264.97C386.82 253.812 385.368 243.208 383.927 233.58C382.439 223.96 381.007 215.309 379.661 208.07C379.025 204.444 378.376 201.177 377.826 198.304C377.285 195.429 376.791 192.959 376.373 190.942C375.973 188.943 375.661 187.381 375.442 186.291C375.345 185.777 375.269 185.376 375.213 185.079C375.162 184.805 375.141 184.664 375.15 184.662Z" fill="#E0E0E0"/>
<path d="M387.931 339.584C387.931 339.584 358.086 305.738 348.819 285.278L355.815 282.291C350.744 283.127 345.549 280.949 341.617 277.641C337.685 274.333 334.798 269.982 331.967 265.695L341.183 264.139C332.803 261.789 325.419 256.072 321.047 248.549C331.922 250.336 341.761 256.307 349.868 263.769C356.434 269.812 361.993 276.827 367.332 283.994C369.937 287.49 372.216 291.215 374.115 295.14C379.13 305.502 387.949 327.154 387.931 339.584Z" fill="#EBEBEB"/>
<path d="M452.641 212.824C452.649 212.828 452.601 212.944 452.499 213.167C452.384 213.412 452.231 213.737 452.036 214.149C451.606 215.034 450.994 216.293 450.212 217.9C449.41 219.524 448.434 221.513 447.334 223.839C446.229 226.162 444.94 228.792 443.59 231.736C440.834 237.596 437.666 244.626 434.261 252.481C430.885 260.348 427.291 269.048 423.716 278.258C420.161 287.479 416.964 296.335 414.166 304.427C411.397 312.529 409.01 319.862 407.105 326.051C406.123 329.136 405.306 331.949 404.56 334.411C403.809 336.872 403.192 338.999 402.692 340.74C402.188 342.455 401.794 343.797 401.517 344.742C401.383 345.178 401.278 345.521 401.199 345.779C401.124 346.012 401.082 346.13 401.073 346.128C401.064 346.126 401.09 346.003 401.147 345.765C401.214 345.503 401.303 345.155 401.416 344.714C401.671 343.763 402.034 342.412 402.497 340.685C402.967 338.935 403.556 336.799 404.28 334.329C405 331.858 405.792 329.037 406.752 325.943C408.613 319.737 410.966 312.388 413.712 304.272C416.487 296.166 419.673 287.298 423.23 278.07C426.808 268.854 430.419 260.153 433.821 252.291C437.252 244.441 440.457 237.422 443.257 231.579C444.629 228.644 445.942 226.024 447.072 223.712C448.198 221.398 449.2 219.421 450.031 217.811C450.85 216.222 451.492 214.978 451.943 214.103C452.157 213.701 452.325 213.384 452.452 213.145C452.569 212.928 452.633 212.82 452.641 212.824Z" fill="#E0E0E0"/>
<path d="M390.463 354.087C390.445 354.089 390.4 353.874 390.329 353.464C390.256 352.999 390.162 352.403 390.046 351.666C389.934 350.884 389.791 349.929 389.586 348.826C389.387 347.722 389.196 346.459 388.897 345.08C388.365 342.308 387.6 339.034 386.625 335.434C385.618 331.843 384.381 327.931 382.871 323.9C381.338 319.876 379.679 316.123 378.06 312.762C376.411 309.416 374.82 306.454 373.387 304.023C372.699 302.79 372.007 301.717 371.427 300.757C370.851 299.794 370.327 298.983 369.894 298.322C369.494 297.693 369.171 297.184 368.918 296.786C368.7 296.432 368.592 296.24 368.607 296.23C368.622 296.22 368.758 296.391 369.005 296.726C369.279 297.11 369.629 297.601 370.063 298.209C370.523 298.853 371.073 299.65 371.673 300.6C372.278 301.547 372.993 302.61 373.704 303.834C375.182 306.249 376.813 309.202 378.491 312.55C380.14 315.912 381.819 319.675 383.358 323.716C384.874 327.763 386.102 331.696 387.088 335.308C388.042 338.929 388.771 342.222 389.259 345.011C389.535 346.399 389.702 347.67 389.874 348.78C390.052 349.89 390.166 350.852 390.247 351.639C390.324 352.381 390.385 352.982 390.434 353.451C390.47 353.867 390.481 354.085 390.463 354.087Z" fill="#E0E0E0"/>
<path d="M429.844 346.126H364.524V359.444H429.844V346.126Z" fill="#E0E0E0"/>
<path d="M370.749 359.444L377.814 404.239H417.284L423.87 359.444H370.749Z" fill="#E0E0E0"/>
<path d="M425.837 359.444C425.837 359.588 413.48 359.704 398.241 359.704C382.996 359.704 370.642 359.587 370.642 359.444C370.642 359.301 382.996 359.184 398.241 359.184C413.481 359.183 425.837 359.3 425.837 359.444Z" fill="#EBEBEB"/>
<path d="M323.358 103.158C321.983 108.57 318.999 112.479 318.999 112.479L323.289 116.488L323.293 116.483L341.591 132.994L341.162 133.193C341.162 133.193 356.998 122.13 361.376 118.52C364.988 115.542 374.653 109.398 375.439 103.436C375.722 101.288 374.556 99.1473 372.603 98.2083C371.484 97.6703 370.026 97.4743 368.426 98.5413C368.426 98.5413 372.686 93.5473 369.318 90.2633C365.95 86.9793 363.319 89.5523 363.319 89.5523C363.319 89.5523 367.486 83.2023 363.618 79.6773C363.618 79.6773 361.164 77.5853 357.969 79.3823L359.539 77.7033L367.635 69.0413C369.605 66.9333 369.709 63.5813 367.674 61.5363C365.566 59.4173 362.147 59.4643 360.097 61.6023L337.297 85.3783L338.456 72.4203C338.748 69.0533 334.2 66.6133 332.179 67.8503C332.179 67.8503 329.073 69.0613 328.222 74.3333C327.586 78.2743 323.358 103.158 323.358 103.158Z" fill="#F5F5F5"/>
<path d="M323.358 103.158C323.358 103.158 323.375 102.937 323.438 102.511C323.507 102.065 323.603 101.437 323.728 100.621C323.999 98.9402 324.393 96.4962 324.9 93.3532C325.421 90.1892 326.056 86.3232 326.795 81.8312C327.168 79.5822 327.566 77.1772 327.989 74.6242C328.199 73.3442 328.5 72.0002 329.158 70.7632C329.793 69.5262 330.72 68.3492 332.105 67.6642L332.073 67.6802C332.877 67.2272 333.831 67.2622 334.671 67.4952C335.52 67.7402 336.317 68.1772 337.002 68.7712C337.682 69.3642 338.256 70.1372 338.528 71.0522C338.601 71.2772 338.621 71.5192 338.668 71.7542C338.677 71.9922 338.676 72.2372 338.671 72.4742C338.631 72.9282 338.591 73.3852 338.551 73.8442C338.228 77.5222 337.889 81.3832 337.536 85.3982L337.123 85.2102C343.48 78.5672 350.444 71.2902 357.852 63.5482C358.315 63.0642 358.78 62.5792 359.247 62.0912C359.71 61.6202 360.167 61.0762 360.77 60.6692C361.949 59.8552 363.459 59.5242 364.888 59.7802C366.32 60.0252 367.645 60.8662 368.481 62.0812C369.325 63.2952 369.614 64.8622 369.326 66.3162C369.186 67.0442 368.903 67.7462 368.502 68.3752C368.098 69.0212 367.557 69.5182 367.086 70.0392C366.111 71.0832 365.131 72.1322 364.145 73.1872C362.174 75.2962 360.184 77.4272 358.176 79.5762L357.828 79.1332C358.925 78.5172 360.368 78.1572 361.739 78.4982C362.3 78.6242 362.835 78.8422 363.329 79.1322C363.565 79.2692 363.834 79.4612 364.01 79.6832C364.194 79.9022 364.421 80.0892 364.567 80.3362C365.245 81.2662 365.545 82.4262 365.546 83.5402C365.523 85.7932 364.663 87.8562 363.555 89.7062L363.12 89.3482C364.228 88.3562 365.833 88.0552 367.189 88.5512C367.872 88.7722 368.46 89.1742 368.997 89.6042C369.253 89.8362 369.526 90.0422 369.744 90.3262L370.087 90.7272L370.354 91.1862C371.082 92.4362 370.967 93.9672 370.566 95.2312C370.142 96.5222 369.472 97.6762 368.636 98.7192L368.271 98.3082C369.429 97.4822 371.052 97.2402 372.37 97.8072C373.69 98.3252 374.754 99.3882 375.304 100.663C375.576 101.301 375.736 101.988 375.748 102.679C375.776 103.378 375.58 104.038 375.425 104.691C375.006 105.975 374.301 107.103 373.544 108.156C370.343 112.273 366.167 115.116 362.417 118.012C358.71 121.011 354.96 123.655 351.425 126.206C347.861 128.72 344.473 131.11 341.28 133.363L341.072 133.001C341.227 132.93 341.364 132.866 341.501 132.803L341.449 133.147C334.112 126.489 327.981 120.924 323.198 116.584L323.392 116.576L323.388 116.581L323.293 116.683L323.192 116.588C321.519 115.01 320.15 113.72 318.92 112.56L318.848 112.492L318.907 112.409C320.847 109.709 321.879 107.303 322.505 105.681C322.817 104.865 323.019 104.229 323.146 103.801C323.277 103.374 323.358 103.158 323.358 103.158C323.358 103.158 323.196 104.066 322.617 105.723C322.021 107.368 321.025 109.791 319.089 112.547L319.076 112.397C320.316 113.546 321.696 114.824 323.383 116.387L323.188 116.394L323.192 116.389L323.285 116.29L323.386 116.381C328.193 120.694 334.356 126.223 341.731 132.839L341.966 133.05L341.679 133.184C341.542 133.248 341.405 133.312 341.25 133.384L341.042 133.022C344.225 130.759 347.603 128.357 351.156 125.831C354.684 123.267 358.413 120.624 362.11 117.617C365.867 114.707 370.007 111.858 373.118 107.84C373.85 106.819 374.523 105.731 374.912 104.531C375.052 103.924 375.235 103.313 375.207 102.693C375.196 102.074 375.05 101.457 374.805 100.883C374.308 99.7352 373.349 98.7822 372.17 98.3222C370.997 97.8312 369.641 98.0292 368.58 98.7732L366.997 99.8832L368.214 98.3622C368.989 97.3942 369.646 96.2622 370.034 95.0652C370.406 93.8802 370.494 92.5322 369.86 91.4562C369.249 90.4112 368.174 89.5082 367.006 89.0872C365.834 88.6482 364.439 88.9372 363.516 89.7552L362.126 90.9872L363.081 89.3972C364.131 87.6492 364.966 85.6152 364.977 83.5462C365.014 81.4952 363.728 79.4192 361.614 79.0562C360.393 78.7522 359.118 79.0692 358.108 79.6322L356.521 80.5162L357.761 79.1902C359.769 77.0422 361.761 74.9122 363.732 72.8032C364.718 71.7492 365.699 70.7002 366.674 69.6572C367.16 69.1222 367.678 68.6432 368.028 68.0762C368.391 67.5082 368.648 66.8722 368.775 66.2132C369.036 64.8962 368.774 63.4872 368.021 62.4022C367.275 61.3152 366.079 60.5502 364.792 60.3312C363.505 60.0992 362.143 60.3962 361.081 61.1272C360.549 61.4822 360.122 61.9852 359.642 62.4742C359.175 62.9612 358.709 63.4462 358.245 63.9292C350.82 71.6552 343.841 78.9182 337.47 85.5482L336.995 86.0432L337.057 85.3602C337.423 81.3462 337.774 77.4862 338.109 73.8092C338.166 72.8792 338.384 71.9782 338.112 71.1752C337.874 70.3592 337.354 69.6472 336.724 69.0932C336.091 68.5382 335.343 68.1242 334.561 67.8952C333.784 67.6732 332.935 67.6622 332.284 68.0252L332.281 68.0272L332.252 68.0412C331.038 68.6342 330.097 69.7642 329.498 70.9422C328.86 72.1282 328.561 73.4212 328.346 74.6852C327.908 77.2362 327.494 79.6412 327.108 81.8882C326.332 86.3752 325.664 90.2372 325.117 93.3972C324.565 96.5322 324.135 98.9702 323.84 100.646C323.691 101.457 323.576 102.081 323.494 102.525C323.413 102.945 323.358 103.158 323.358 103.158Z" fill="#E0E0E0"/>
<path d="M335.78 139.689L313.238 118.62C311.525 117.019 311.434 114.333 313.035 112.62L313.239 112.402C314.84 110.689 317.526 110.598 319.239 112.199L341.781 133.268C343.494 134.869 343.585 137.555 341.984 139.268L341.78 139.486C340.179 141.199 337.493 141.29 335.78 139.689Z" fill="#F5F5F5"/>
<path d="M335.78 139.689C335.801 139.665 336.024 139.888 336.531 140.181C337.036 140.458 337.874 140.799 338.976 140.706C339.521 140.659 340.12 140.495 340.697 140.167C341.262 139.838 341.804 139.308 342.244 138.682C343.127 137.445 343.286 135.347 342.029 133.838C336.11 128.32 328.002 120.76 319.045 112.409C317.996 111.419 316.422 111.092 315.093 111.54C314.432 111.769 313.838 112.148 313.37 112.673C312.867 113.18 312.517 113.766 312.327 114.422C311.939 115.727 312.289 117.177 313.16 118.151C314.112 119.097 315.152 120.036 316.108 120.946C319.972 124.589 323.456 127.873 326.398 130.647C329.282 133.394 331.63 135.631 333.301 137.223C334.078 137.98 334.696 138.582 335.158 139.032C335.579 139.448 335.793 139.675 335.78 139.689C335.767 139.703 335.526 139.505 335.081 139.114C334.601 138.684 333.958 138.107 333.151 137.383C331.45 135.823 329.06 133.631 326.124 130.939C323.158 128.191 319.647 124.937 315.751 121.328C314.775 120.407 313.781 119.526 312.755 118.511C311.759 117.407 311.354 115.757 311.793 114.268C311.999 113.528 312.426 112.828 312.961 112.289C313.473 111.712 314.166 111.259 314.918 111.002C316.434 110.487 318.238 110.86 319.436 111.993C328.403 120.404 336.527 127.944 342.345 133.585C343.706 135.266 343.486 137.548 342.509 138.863C342.017 139.531 341.458 140.054 340.833 140.404C340.21 140.74 339.569 140.895 338.994 140.928C337.83 140.991 336.973 140.596 336.474 140.28C335.971 139.946 335.78 139.689 335.78 139.689Z" fill="#E0E0E0"/>
<path d="M349.525 88.03C349.41 87.923 351.266 85.75 353.67 83.179C356.074 80.606 358.116 78.609 358.231 78.716C358.346 78.823 356.49 80.995 354.086 83.568C351.682 86.139 349.639 88.137 349.525 88.03Z" fill="#E0E0E0"/>
<path d="M358.137 94.893C358.022 94.786 359.088 93.459 360.517 91.93C361.947 90.4 363.198 89.248 363.313 89.355C363.428 89.462 362.362 90.789 360.933 92.319C359.504 93.848 358.252 95 358.137 94.893Z" fill="#E0E0E0"/>
<path d="M363.273 104.058C363.158 103.951 364.224 102.624 365.653 101.094C367.083 99.5641 368.335 98.4121 368.449 98.5191C368.563 98.6261 367.498 99.9531 366.069 101.483C364.64 103.013 363.388 104.165 363.273 104.058Z" fill="#E0E0E0"/>
<path d="M362.348 55.8821C362.2 55.9361 361.073 53.1951 359.831 49.7611C358.588 46.3261 357.701 43.4991 357.849 43.4451C357.997 43.3921 359.124 46.1321 360.367 49.5671C361.609 53.0011 362.496 55.8291 362.348 55.8821Z" fill="#E0E0E0"/>
<path d="M368.302 57.331C368.172 57.243 370.201 54.027 372.833 50.149C375.466 46.27 377.706 43.198 377.836 43.286C377.966 43.374 375.938 46.59 373.304 50.469C370.672 54.347 368.432 57.42 368.302 57.331Z" fill="#E0E0E0"/>
<path d="M372.632 62.4242C372.599 62.2702 375.589 61.5072 379.309 60.7202C383.03 59.9322 386.072 59.4192 386.104 59.5732C386.137 59.7272 383.148 60.4902 379.427 61.2782C375.707 62.0642 372.665 62.5782 372.632 62.4242Z" fill="#E0E0E0"/>
<path d="M85.931 274.4L53.824 404.225H62.275L95.175 274.4H85.931Z" fill="#F5F5F5"/>
<path d="M146.408 274.4L176.45 404.225H167.998L137.165 274.4H146.408Z" fill="#F5F5F5"/>
<path d="M121.306 402.317H111.467L110.002 253.313H119.84L121.306 402.317Z" fill="#F5F5F5"/>
<path d="M184.336 165.804H45.5081V254.747H184.336V165.804Z" fill="#EBEBEB"/>
<path d="M149.801 273.036H80.1201V281.626H149.801V273.036Z" fill="#F5F5F5"/>
<path d="M54.7331 243.144C54.7661 243.144 54.7981 243.655 54.8281 244.771H54.6381C54.4951 240.421 54.3911 226.01 54.3911 208.932C54.4301 198.626 54.4651 189.3 54.4911 182.436C54.5361 179.116 54.5731 176.396 54.6001 174.407C54.6261 173.52 54.6471 172.798 54.6641 172.224C54.6861 171.725 54.7091 171.463 54.7331 171.463C54.7571 171.463 54.7801 171.725 54.8021 172.224C54.8191 172.798 54.8401 173.521 54.8661 174.407C54.8931 176.396 54.9301 179.116 54.9751 182.436C55.0011 189.301 55.0361 198.626 55.0751 208.932C55.0751 226.01 54.9711 240.422 54.8281 244.771H54.6381C54.6691 243.656 54.7001 243.144 54.7331 243.144Z" fill="#F5F5F5"/>
<path d="M65.0661 243.144C65.0991 243.144 65.1311 243.655 65.1611 244.771H64.9711C64.8281 240.421 64.7241 226.01 64.7241 208.932C64.7631 198.626 64.7981 189.3 64.8241 182.436C64.8691 179.116 64.9061 176.396 64.9331 174.407C64.9591 173.52 64.9801 172.798 64.9971 172.224C65.0191 171.725 65.0421 171.463 65.0661 171.463C65.0901 171.463 65.1131 171.725 65.1351 172.224C65.1521 172.798 65.1731 173.521 65.1991 174.407C65.2261 176.396 65.2631 179.116 65.3081 182.436C65.3341 189.301 65.3691 198.626 65.4081 208.932C65.4081 226.01 65.3041 240.422 65.1611 244.771H64.9711C65.0011 243.656 65.0331 243.144 65.0661 243.144Z" fill="#F5F5F5"/>
<path d="M75.3982 243.144C75.4312 243.144 75.4631 243.655 75.4931 244.771H75.3032C75.1602 240.421 75.0562 226.01 75.0562 208.932C75.0952 198.626 75.1302 189.3 75.1562 182.436C75.2012 179.116 75.2382 176.396 75.2652 174.407C75.2912 173.52 75.3122 172.798 75.3292 172.224C75.3512 171.725 75.3742 171.463 75.3982 171.463C75.4222 171.463 75.4452 171.725 75.4672 172.224C75.4842 172.798 75.5052 173.521 75.5312 174.407C75.5582 176.396 75.5952 179.116 75.6402 182.436C75.6662 189.301 75.7012 198.626 75.7402 208.932C75.7402 226.01 75.6361 240.422 75.4931 244.771H75.3032C75.3342 243.656 75.3662 243.144 75.3982 243.144Z" fill="#F5F5F5"/>
<path d="M85.7312 243.144C85.7642 243.144 85.7962 243.655 85.8262 244.771H85.6362C85.4932 240.421 85.3892 226.01 85.3892 208.932C85.4282 198.626 85.4632 189.3 85.4892 182.436C85.5342 179.116 85.5712 176.396 85.5982 174.407C85.6242 173.52 85.6452 172.798 85.6622 172.224C85.6842 171.725 85.7072 171.463 85.7312 171.463C85.7552 171.463 85.7782 171.725 85.8002 172.224C85.8172 172.798 85.8382 173.521 85.8642 174.407C85.8912 176.396 85.9282 179.116 85.9732 182.436C85.9992 189.301 86.0342 198.626 86.0732 208.932C86.0732 226.01 85.9692 240.422 85.8262 244.771H85.6362C85.6662 243.656 85.6982 243.144 85.7312 243.144Z" fill="#F5F5F5"/>
<path d="M96.063 243.144C96.096 243.144 96.1279 243.655 96.1579 244.771H95.9679C95.8249 240.421 95.7209 226.01 95.7209 208.932C95.7599 198.626 95.7949 189.3 95.8209 182.436C95.8659 179.116 95.9029 176.396 95.9299 174.407C95.9559 173.52 95.9769 172.798 95.9939 172.224C96.0159 171.725 96.039 171.463 96.063 171.463C96.087 171.463 96.11 171.725 96.132 172.224C96.149 172.798 96.1699 173.521 96.1959 174.407C96.2229 176.396 96.2599 179.116 96.3049 182.436C96.3309 189.301 96.3659 198.626 96.4049 208.932C96.4049 226.01 96.3009 240.422 96.1579 244.771H95.9679C95.9989 243.656 96.031 243.144 96.063 243.144Z" fill="#F5F5F5"/>
<path d="M106.396 243.144C106.429 243.144 106.461 243.655 106.491 244.771H106.301C106.158 240.421 106.054 226.01 106.054 208.932C106.093 198.626 106.128 189.3 106.154 182.436C106.199 179.116 106.236 176.396 106.263 174.407C106.289 173.52 106.31 172.798 106.327 172.224C106.349 171.725 106.372 171.463 106.396 171.463C106.42 171.463 106.443 171.725 106.465 172.224C106.482 172.798 106.503 173.521 106.529 174.407C106.556 176.396 106.593 179.116 106.638 182.436C106.664 189.301 106.699 198.626 106.738 208.932C106.738 226.01 106.634 240.422 106.491 244.771H106.301C106.331 243.656 106.363 243.144 106.396 243.144Z" fill="#F5F5F5"/>
<path d="M116.729 243.144C116.762 243.144 116.794 243.655 116.824 244.771H116.634C116.491 240.421 116.387 226.01 116.387 208.932C116.426 198.626 116.461 189.3 116.487 182.436C116.532 179.116 116.569 176.396 116.596 174.407C116.622 173.52 116.643 172.798 116.66 172.224C116.682 171.725 116.705 171.463 116.729 171.463C116.752 171.463 116.776 171.725 116.798 172.224C116.815 172.798 116.836 173.521 116.862 174.407C116.889 176.396 116.926 179.116 116.971 182.436C116.997 189.301 117.032 198.626 117.071 208.932C117.071 226.01 116.967 240.422 116.824 244.771H116.634C116.664 243.656 116.696 243.144 116.729 243.144Z" fill="#F5F5F5"/>
<path d="M127.061 243.144C127.094 243.144 127.126 243.655 127.156 244.771H126.966C126.823 240.421 126.719 226.01 126.719 208.932C126.758 198.626 126.793 189.3 126.819 182.436C126.864 179.116 126.901 176.396 126.928 174.407C126.954 173.52 126.975 172.798 126.992 172.224C127.014 171.725 127.037 171.463 127.061 171.463C127.084 171.463 127.108 171.725 127.13 172.224C127.147 172.798 127.168 173.521 127.194 174.407C127.221 176.396 127.258 179.116 127.303 182.436C127.329 189.301 127.364 198.626 127.403 208.932C127.403 226.01 127.299 240.422 127.156 244.771H126.966C126.996 243.656 127.028 243.144 127.061 243.144Z" fill="#F5F5F5"/>
<path d="M137.394 243.144C137.427 243.144 137.459 243.655 137.489 244.771H137.299C137.156 240.421 137.052 226.01 137.052 208.932C137.091 198.626 137.126 189.3 137.152 182.436C137.197 179.116 137.234 176.396 137.261 174.407C137.287 173.52 137.308 172.798 137.325 172.224C137.347 171.725 137.371 171.463 137.394 171.463C137.418 171.463 137.441 171.725 137.463 172.224C137.48 172.798 137.501 173.521 137.527 174.407C137.554 176.396 137.591 179.116 137.636 182.436C137.662 189.301 137.697 198.626 137.736 208.932C137.736 226.01 137.632 240.422 137.489 244.771H137.299C137.329 243.656 137.361 243.144 137.394 243.144Z" fill="#F5F5F5"/>
<path d="M147.726 243.144C147.759 243.144 147.791 243.655 147.821 244.771H147.631C147.488 240.421 147.384 226.01 147.384 208.932C147.423 198.626 147.458 189.3 147.484 182.436C147.529 179.116 147.566 176.396 147.593 174.407C147.619 173.52 147.64 172.798 147.657 172.224C147.679 171.725 147.702 171.463 147.726 171.463C147.75 171.463 147.773 171.725 147.795 172.224C147.812 172.798 147.833 173.521 147.859 174.407C147.886 176.396 147.923 179.116 147.968 182.436C147.994 189.301 148.029 198.626 148.068 208.932C148.068 226.01 147.964 240.422 147.821 244.771H147.631C147.661 243.656 147.693 243.144 147.726 243.144Z" fill="#F5F5F5"/>
<path d="M158.059 243.144C158.092 243.144 158.124 243.655 158.154 244.771H157.964C157.821 240.421 157.717 226.01 157.717 208.932C157.756 198.626 157.791 189.3 157.817 182.436C157.862 179.116 157.899 176.396 157.926 174.407C157.952 173.52 157.973 172.798 157.99 172.224C158.012 171.725 158.035 171.463 158.059 171.463C158.083 171.463 158.106 171.725 158.128 172.224C158.145 172.798 158.166 173.521 158.192 174.407C158.219 176.396 158.256 179.116 158.301 182.436C158.327 189.301 158.362 198.626 158.401 208.932C158.401 226.01 158.297 240.422 158.154 244.771H157.964C157.994 243.656 158.026 243.144 158.059 243.144Z" fill="#F5F5F5"/>
<path d="M168.391 243.144C168.424 243.144 168.456 243.655 168.486 244.771H168.296C168.153 240.421 168.049 226.01 168.049 208.932C168.088 198.626 168.123 189.3 168.149 182.436C168.194 179.116 168.231 176.396 168.258 174.407C168.284 173.52 168.305 172.798 168.322 172.224C168.344 171.725 168.367 171.463 168.391 171.463C168.415 171.463 168.438 171.725 168.46 172.224C168.477 172.798 168.498 173.521 168.524 174.407C168.551 176.396 168.588 179.116 168.633 182.436C168.659 189.301 168.694 198.626 168.733 208.932C168.733 226.01 168.629 240.422 168.486 244.771H168.296C168.326 243.656 168.358 243.144 168.391 243.144Z" fill="#F5F5F5"/>
<path d="M178.724 243.144C178.757 243.144 178.789 243.655 178.819 244.771H178.629C178.486 240.421 178.382 226.01 178.382 208.932C178.421 198.626 178.456 189.3 178.482 182.436C178.527 179.116 178.564 176.396 178.591 174.407C178.617 173.52 178.638 172.798 178.655 172.224C178.677 171.725 178.7 171.463 178.724 171.463C178.747 171.463 178.771 171.725 178.793 172.224C178.81 172.798 178.831 173.521 178.857 174.407C178.884 176.396 178.921 179.116 178.966 182.436C178.992 189.301 179.027 198.626 179.066 208.932C179.066 226.01 178.962 240.422 178.819 244.771H178.629C178.659 243.656 178.691 243.144 178.724 243.144Z" fill="#F5F5F5"/>
<path d="M283.69 102.27L275.895 172.463C274.569 184.4 270.183 201.664 251.406 198.707C235.308 194.913 232.889 178.931 234.137 167.793C234.729 162.51 235.212 158.102 235.237 157.556C235.237 157.556 217.555 153.891 218.228 136.061C218.554 127.445 220.669 109.753 222.769 93.7696C225.023 76.6036 240.102 64.0586 257.393 64.9256L259.112 65.0116C277.597 67.0246 286.214 83.8476 283.69 102.27Z" fill="#E58A7B"/>
<path d="M235.238 157.556C235.238 157.556 246.436 158.778 258.782 151.861C258.782 151.861 252.47 164.592 234.77 162.095L235.238 157.556Z" fill="#6F4C47"/>
<path d="M252.04 104.73C252.347 105.13 254.586 103.742 257.553 104.028C260.52 104.27 262.546 106.037 262.904 105.695C263.078 105.545 262.794 104.847 261.914 104.051C261.048 103.259 259.522 102.426 257.673 102.261C255.824 102.099 254.203 102.649 253.242 103.28C252.26 103.912 251.887 104.549 252.04 104.73Z" fill="#263238"/>
<path d="M251.372 110.855C251.264 112.124 252.248 113.262 253.571 113.4C254.891 113.537 256.052 112.623 256.161 111.354C256.27 110.086 255.285 108.946 253.964 108.808C252.642 108.67 251.481 109.586 251.372 110.855Z" fill="#263238"/>
<path d="M242.093 124.376C242.114 124.221 240.426 123.841 237.686 123.351C236.99 123.244 236.336 123.072 236.242 122.589C236.102 122.075 236.433 121.336 236.813 120.54C237.555 118.881 238.332 117.142 239.148 115.319C242.4 107.882 244.791 101.754 244.491 101.625C244.19 101.497 241.31 107.42 238.059 114.856C237.274 116.691 236.523 118.439 235.809 120.113C235.505 120.894 235.005 121.773 235.309 122.839C235.471 123.371 235.965 123.776 236.407 123.918C236.849 124.078 237.242 124.105 237.587 124.143C240.354 124.432 242.075 124.531 242.093 124.376Z" fill="#263238"/>
<path d="M254.671 93.7714C254.875 94.4624 257.303 94.2614 260.118 94.7574C262.944 95.1934 265.186 96.1664 265.592 95.5764C265.774 95.2934 265.408 94.6344 264.517 93.9304C263.634 93.2284 262.204 92.5314 260.513 92.2504C258.822 91.9734 257.25 92.1744 256.197 92.5564C255.135 92.9364 254.585 93.4434 254.671 93.7714Z" fill="#263238"/>
<path d="M226.885 93.7664C227.129 94.3394 229.509 94.0314 232.315 94.2904C235.127 94.4994 237.397 95.1944 237.761 94.6724C237.923 94.4224 237.522 93.8864 236.6 93.3404C235.687 92.7964 234.234 92.2874 232.55 92.1464C230.866 92.0084 229.33 92.2674 228.314 92.6504C227.29 93.0334 226.779 93.4944 226.885 93.7664Z" fill="#263238"/>
<path d="M281.573 115.39C281.884 115.274 293.998 112.383 292.997 124.545C291.997 136.707 279.993 133.194 280 132.844C280.009 132.494 281.573 115.39 281.573 115.39Z" fill="#E58A7B"/>
<path d="M284.095 128.542C284.152 128.508 284.295 128.708 284.639 128.901C284.975 129.089 285.567 129.249 286.22 129.064C287.543 128.698 288.793 126.747 289.033 124.56C289.155 123.456 289.01 122.383 288.689 121.478C288.391 120.558 287.867 119.889 287.229 119.721C286.598 119.519 286.108 119.869 285.931 120.199C285.74 120.525 285.797 120.775 285.731 120.79C285.694 120.817 285.487 120.565 285.626 120.07C285.696 119.833 285.862 119.557 286.167 119.347C286.479 119.134 286.918 119.048 287.364 119.134C288.297 119.276 289.07 120.208 289.422 121.202C289.826 122.204 290.015 123.412 289.878 124.652C289.598 127.097 288.155 129.286 286.355 129.65C285.481 129.803 284.789 129.486 284.444 129.169C284.093 128.838 284.051 128.56 284.095 128.542Z" fill="#6F4C47"/>
<path d="M243.912 133.108C243.818 132.786 246.276 132.369 248.218 130.351C249.187 129.359 249.814 128.225 250.283 127.398C250.745 126.563 251.08 126.045 251.206 126.101C251.324 126.155 251.221 126.746 250.908 127.677C250.589 128.597 250.01 129.897 248.913 131.024C247.828 132.165 246.489 132.761 245.529 133.008C244.559 133.269 243.931 133.215 243.912 133.108Z" fill="#263238"/>
<path d="M226.011 100.898C226.318 101.298 228.557 99.9095 231.524 100.196C234.491 100.438 236.517 102.205 236.875 101.863C237.049 101.712 236.765 101.015 235.885 100.22C235.019 99.4275 233.493 98.5945 231.644 98.4295C229.795 98.2675 228.174 98.8175 227.213 99.4485C226.231 100.08 225.858 100.718 226.011 100.898Z" fill="#263238"/>
<path d="M225.803 107.693C225.695 108.962 226.679 110.1 228.002 110.238C229.322 110.376 230.483 109.461 230.592 108.192C230.701 106.924 229.716 105.784 228.395 105.646C227.072 105.508 225.912 106.425 225.803 107.693Z" fill="#263238"/>
<path d="M291.182 104.507C290.287 107.9 288.169 115.634 285.135 114.944C279.121 113.575 279.492 123.202 276.594 122.068C273.737 120.95 273.014 113.288 273.337 110.237C274.344 100.712 277.999 93.8648 273.973 82.9878C271.345 78.6478 266.774 75.7568 261.7 75.7568C256.626 75.7558 251.785 78.4368 249.156 82.7768C248.541 79.4488 246.799 74.4488 243.786 72.9088C240.773 71.3678 236.805 71.6498 234.293 73.9178C231.781 76.1858 231.177 80.4188 233.258 83.0878C231.905 83.5628 230.265 83.0148 229.468 81.8228C229.379 83.3828 229.971 84.9708 231.061 86.0908C229.833 85.8108 228.715 85.0698 227.978 84.0468C228.307 85.4228 228.636 86.7978 228.965 88.1738C223.927 88.4238 218.881 83.6568 217.381 79.3458C215.107 72.8108 216.591 66.1328 220.134 60.1908C223.678 54.2488 230.171 49.9688 237.089 49.8718C244.007 49.7748 249.875 52.9188 252.691 59.2388C257.107 55.9578 266.175 54.6478 271.234 56.8068C276.293 58.9668 280.041 63.9368 280.727 69.3948C283.827 67.9978 287.61 68.9408 290.298 71.0238C290.522 71.1978 290.74 71.3778 290.951 71.5638C294.646 74.8208 296.244 79.8688 295.432 84.7268C295.11 86.6538 294.493 88.6538 294.138 90.2018C293.082 94.7998 291.182 104.507 291.182 104.507Z" fill="#263238"/>
<path d="M228.675 81.5318C228.663 81.5458 228.523 81.4398 228.266 81.2228C228.009 81.0078 227.647 80.6618 227.25 80.1578C226.445 79.1748 225.482 77.4938 225.16 75.1968C224.825 72.9478 225.282 69.9498 227.334 67.5998C229.295 65.2708 232.664 63.5678 236.247 63.9958C238.016 64.2028 239.656 64.8728 241.06 65.7558C242.468 66.6418 243.666 67.7288 244.647 68.8878C246.634 71.1998 247.8 73.7428 248.42 75.9388C249.05 78.1448 249.153 80.0158 249.131 81.2868C249.102 81.9248 249.073 82.4178 249.019 82.7498C248.975 83.0818 248.944 83.2548 248.926 83.2528C248.782 83.2698 249.365 80.3848 248.067 76.0428C247.414 73.9008 246.238 71.4338 244.284 69.2018C242.37 66.9948 239.571 64.9278 236.185 64.5138C232.808 64.1058 229.586 65.7088 227.697 67.9128C225.726 70.1308 225.249 72.9668 225.524 75.1518C225.789 77.3748 226.67 79.0368 227.41 80.0358C228.157 81.0488 228.714 81.4908 228.675 81.5318Z" fill="#455A64"/>
<path d="M226.488 86.8528C226.472 86.8618 226.345 86.6668 226.118 86.2868C225.892 85.9068 225.563 85.3438 225.157 84.6078C224.36 83.1328 223.167 80.9898 222.237 78.1058C221.786 76.6648 221.423 75.0268 221.351 73.2378C221.284 71.4568 221.487 69.5068 222.244 67.6198C222.986 65.7328 224.356 63.9778 226.171 62.7208C227.987 61.4708 230.193 60.6508 232.521 60.4548C234.852 60.2448 237.141 60.6498 239.204 61.3658C241.269 62.0968 243.124 63.1468 244.73 64.3458C247.953 66.7438 250.107 69.8918 250.887 72.8428C251.691 75.8008 251.281 78.3528 250.703 79.9268C250.423 80.7288 250.084 81.2978 249.862 81.6808C249.613 82.0498 249.475 82.2368 249.46 82.2268C249.406 82.1968 249.992 81.4478 250.511 79.8618C251.02 78.2988 251.359 75.8028 250.533 72.9428C249.731 70.0918 247.61 67.0548 244.444 64.7308C241.318 62.4268 237.095 60.5958 232.567 60.9738C230.329 61.1618 228.205 61.9488 226.462 63.1398C224.719 64.3408 223.413 65.9968 222.689 67.7998C221.952 69.6018 221.737 71.4878 221.783 73.2228C221.835 74.9668 222.168 76.5708 222.59 77.9978C223.46 80.8518 224.597 83.0128 225.337 84.5128C225.697 85.2228 225.987 85.7948 226.211 86.2358C226.408 86.6318 226.504 86.8438 226.488 86.8528Z" fill="#455A64"/>
<path d="M286.851 96.9856C286.787 96.9106 287.916 96.0776 289.308 94.3436C290.698 92.6306 292.277 89.9026 292.889 86.5736C293.5 83.2426 292.992 80.1316 292.3 78.0366C291.614 75.9206 290.855 74.7416 290.941 74.6946C290.968 74.6776 291.183 74.9546 291.509 75.4946C291.837 76.0346 292.254 76.8536 292.648 77.9166C293.445 80.0236 294.032 83.2266 293.401 86.6666C292.769 90.1056 291.084 92.8906 289.591 94.5786C288.845 95.4326 288.164 96.0506 287.666 96.4386C287.169 96.8286 286.87 97.0106 286.851 96.9856Z" fill="#455A64"/>
<path d="M276.118 96.8947C276.095 96.8447 276.701 96.6197 277.618 95.9617C278.518 95.3077 279.749 94.1477 280.505 92.3157L280.975 91.1787L280.893 92.4087C280.782 94.0687 280.655 95.9827 280.516 98.0567L280.127 97.8357C281.495 96.8607 282.817 95.5547 283.888 93.9797C285.254 91.9897 286.061 89.7787 286.376 87.7167C286.688 85.6467 286.541 83.7347 286.215 82.1847C285.543 79.0617 284.329 77.4027 284.438 77.3547C284.453 77.3447 284.532 77.4427 284.667 77.6377C284.808 77.8297 284.989 78.1297 285.212 78.5247C285.648 79.3157 286.19 80.5237 286.574 82.1047C286.954 83.6817 287.146 85.6447 286.85 87.7867C286.551 89.9217 285.729 92.2157 284.317 94.2737C283.21 95.9017 281.835 97.2477 280.41 98.2417L279.978 98.5437L280.021 98.0207C280.193 95.9487 280.351 94.0377 280.489 92.3797L280.876 92.4727C280.034 94.3807 278.707 95.5337 277.744 96.1497C277.256 96.4617 276.846 96.6497 276.564 96.7637C276.28 96.8707 276.125 96.9127 276.118 96.8947Z" fill="#455A64"/>
<path d="M272.278 72.1736C272.176 72.2486 271.634 70.5096 269.473 68.8376C268.404 68.0256 266.94 67.2706 265.191 66.9646C263.449 66.6486 261.441 66.8566 259.534 67.6086C257.627 68.3716 256.022 69.5776 254.861 70.9266C253.686 72.2716 252.913 73.7116 252.397 74.9626C251.388 77.4946 251.317 79.2296 251.211 79.2096C251.182 79.2076 251.172 78.7786 251.268 78.0106C251.364 77.2446 251.58 76.1376 252.054 74.8296C252.538 73.5306 253.299 72.0266 254.498 70.6136C255.684 69.1956 257.351 67.9216 259.343 67.1246C261.335 66.3386 263.448 66.1336 265.277 66.4926C267.111 66.8416 268.62 67.6686 269.701 68.5486C270.781 69.4436 271.454 70.3766 271.822 71.0596C272.004 71.4036 272.131 71.6766 272.195 71.8716C272.266 72.0636 272.294 72.1666 272.278 72.1736Z" fill="#455A64"/>
<path d="M269.316 63.2497C269.265 63.3487 268.152 62.5067 266.04 62.0727C263.968 61.6217 260.828 61.7707 257.981 63.4007C255.137 65.0457 253.351 67.5797 252.392 69.4847C251.415 71.4117 251.118 72.7417 251.024 72.7147C250.993 72.7077 251.036 72.3697 251.184 71.7737C251.33 71.1777 251.604 70.3277 252.061 69.3237C252.954 67.3377 254.75 64.6677 257.721 62.9487C260.704 61.2397 263.994 61.1507 266.12 61.7127C267.196 61.9847 268.019 62.3617 268.545 62.6837C269.074 63.0017 269.333 63.2257 269.316 63.2497Z" fill="#455A64"/>
<path d="M197.263 340.228L309.021 341.751C309.021 341.751 340.275 328.673 348.861 328.321C357.447 327.969 374.491 329.061 382.375 341.751C390.524 354.867 391.663 378.007 366.549 394.824C342.094 411.2 230.261 426.332 214.93 424.94L186.671 387.008C186.671 387.008 186.375 355.921 186.671 354.44C186.967 352.96 191.704 339.637 191.704 339.637L197.263 340.228Z" fill="#263238"/>
<path d="M264.164 392.707L322.068 414.215L295.677 486.392C288.937 483.449 288.747 441.047 288.747 441.047L251.082 428.789L264.164 392.707Z" fill="#FF725E"/>
<g opacity="0.6">
<path d="M293.78 417.586C294.673 416.329 296.597 415.938 297.89 416.778C299.183 417.618 299.597 419.57 298.727 420.843C297.856 422.116 295.561 422.656 294.371 421.676C293.18 420.696 292.819 418.377 293.97 417.35" fill="white"/>
</g>
<path d="M322.068 414.214L316.223 412.043L293.057 482.202C293.057 482.202 293.28 485.927 295.676 486.391L322.068 414.214Z" fill="#263238"/>
<path d="M287.953 442.083C288.309 442.2 289.113 440.496 290.881 439.177C292.614 437.811 294.467 437.475 294.446 437.1C294.496 436.75 292.197 436.504 290.086 438.14C287.96 439.756 287.601 442.041 287.953 442.083Z" fill="#263238"/>
<path d="M288.316 450.798C288.628 451.004 289.785 449.696 291.714 449.045C293.623 448.336 295.346 448.623 295.458 448.267C295.634 447.956 293.659 446.957 291.277 447.814C288.888 448.649 287.982 450.668 288.316 450.798Z" fill="#263238"/>
<path d="M295.804 458.41C295.996 458.117 294.414 456.983 292.154 457.182C289.891 457.365 288.522 458.749 288.761 459.005C288.978 459.31 290.405 458.619 292.264 458.483C294.118 458.305 295.641 458.747 295.804 458.41Z" fill="#263238"/>
<path d="M279.678 438.337C280.053 438.307 280.158 436.512 281.022 434.57C281.846 432.61 283.082 431.304 282.847 431.01C282.667 430.713 280.809 431.75 279.823 434.052C278.821 436.345 279.338 438.409 279.678 438.337Z" fill="#263238"/>
<path d="M271.743 433.486C271.887 433.543 272.614 432.23 273.046 429.864C273.259 428.687 273.374 427.249 273.267 425.658C273.213 424.863 273.103 424.03 272.925 423.179C272.833 422.769 272.761 422.295 272.474 421.777C272.249 421.252 271.396 420.688 270.658 420.93C269.968 421.097 269.49 421.663 269.288 422.179C269.076 422.705 269.025 423.175 268.98 423.603C268.881 424.478 268.872 425.329 268.929 426.133C269.052 427.741 269.436 429.152 269.898 430.266C270.836 432.508 271.944 433.561 272.056 433.465C272.231 433.348 271.425 432.129 270.768 429.957C270.442 428.874 270.18 427.548 270.13 426.069C270.11 425.329 270.142 424.553 270.249 423.759C270.327 422.921 270.56 422.269 270.972 422.197C271.128 422.173 271.182 422.183 271.347 422.424C271.493 422.664 271.582 423.048 271.674 423.453C271.857 424.244 271.984 425.019 272.067 425.762C272.231 427.25 272.218 428.609 272.128 429.746C271.951 432.026 271.55 433.422 271.743 433.486Z" fill="#263238"/>
<path d="M272.416 433.212C272.516 433.107 271.509 431.946 269.273 430.982C268.163 430.508 266.748 430.124 265.135 430.028C264.329 429.985 263.477 430.016 262.604 430.146C261.736 430.308 260.593 430.475 259.936 431.785C259.648 432.489 259.989 433.286 260.392 433.663C260.793 434.08 261.195 434.281 261.582 434.519C262.377 434.96 263.209 435.246 264.016 435.411C265.635 435.746 267.143 435.584 268.315 435.233C270.701 434.507 271.66 433.19 271.551 433.116C271.417 432.934 270.288 433.914 268.096 434.336C267.015 434.544 265.673 434.59 264.281 434.237C263.586 434.063 262.881 433.794 262.216 433.407C261.49 433.014 260.976 432.5 261.16 432.241C261.285 431.88 262.086 431.481 262.806 431.41C263.589 431.276 264.359 431.223 265.093 431.231C266.563 431.256 267.884 431.515 268.956 431.85C271.11 432.525 272.292 433.384 272.416 433.212Z" fill="#263238"/>
<path d="M216.4 383.788L160.365 409.779L192.345 479.66C198.833 476.196 195.691 433.911 195.691 433.911L232.277 418.731L216.4 383.788Z" fill="#FF725E"/>
<g opacity="0.6">
<path d="M188.831 410.916C187.842 409.733 185.894 409.495 184.671 410.434C183.448 411.373 183.189 413.352 184.156 414.553C185.124 415.753 187.454 416.111 188.564 415.041C189.674 413.971 189.852 411.63 188.624 410.697" fill="white"/>
</g>
<path d="M160.365 409.78L166.021 407.157L194.628 475.279C194.628 475.279 194.698 479.01 192.346 479.661L160.365 409.78Z" fill="#263238"/>
<path d="M196.565 434.881C196.219 435.026 195.283 433.39 193.417 432.214C191.582 430.988 189.708 430.799 189.7 430.423C189.622 430.078 191.895 429.654 194.129 431.118C196.376 432.562 196.912 434.811 196.565 434.881Z" fill="#263238"/>
<path d="M196.888 443.598C196.593 443.828 195.337 442.615 193.363 442.117C191.404 441.56 189.71 441.982 189.569 441.636C189.369 441.34 191.259 440.189 193.701 440.856C196.149 441.5 197.211 443.442 196.888 443.598Z" fill="#263238"/>
<path d="M190.021 451.774C189.806 451.497 191.294 450.242 193.564 450.263C195.835 450.268 197.308 451.54 197.09 451.814C196.898 452.135 195.421 451.558 193.557 451.569C191.694 451.537 190.21 452.098 190.021 451.774Z" fill="#263238"/>
<path d="M204.52 430.496C204.144 430.495 203.898 428.714 202.884 426.846C201.908 424.957 200.574 423.752 200.785 423.44C200.941 423.13 202.875 424.017 204.038 426.235C205.218 428.443 204.864 430.542 204.52 430.496Z" fill="#263238"/>
<path d="M212.049 425.038C211.91 425.107 211.082 423.854 210.465 421.53C210.16 420.373 209.932 418.949 209.914 417.354C209.906 416.557 209.949 415.719 210.06 414.856C210.12 414.44 210.154 413.962 210.4 413.423C210.583 412.882 211.389 412.253 212.143 412.436C212.844 412.548 213.365 413.075 213.607 413.574C213.86 414.082 213.947 414.547 214.026 414.97C214.194 415.835 214.269 416.682 214.276 417.488C214.279 419.101 214.008 420.537 213.634 421.684C212.875 423.992 211.853 425.129 211.734 425.043C211.55 424.94 212.258 423.662 212.742 421.445C212.982 420.34 213.139 418.997 213.072 417.519C213.034 416.78 212.941 416.009 212.771 415.226C212.627 414.397 212.344 413.765 211.928 413.726C211.771 413.714 211.717 413.728 211.572 413.982C211.445 414.233 211.387 414.623 211.327 415.034C211.207 415.837 211.141 416.619 211.116 417.366C211.069 418.862 211.19 420.216 211.368 421.343C211.728 423.599 212.237 424.959 212.049 425.038Z" fill="#263238"/>
<path d="M211.357 424.817C211.249 424.72 212.162 423.484 214.315 422.347C215.385 421.788 216.765 421.293 218.365 421.071C219.165 420.965 220.017 420.928 220.898 420.99C221.776 421.084 222.929 421.16 223.687 422.414C224.029 423.094 223.752 423.915 223.38 424.322C223.013 424.77 222.628 425.001 222.261 425.269C221.503 425.771 220.696 426.122 219.905 426.35C218.317 426.811 216.801 426.768 215.606 426.51C213.17 425.973 212.111 424.736 212.214 424.654C212.333 424.462 213.536 425.35 215.754 425.598C216.848 425.72 218.189 425.661 219.549 425.2C220.228 424.972 220.91 424.648 221.542 424.21C222.235 423.761 222.706 423.208 222.503 422.965C222.35 422.615 221.52 422.28 220.797 422.266C220.006 422.194 219.234 422.202 218.503 422.267C217.04 422.407 215.743 422.769 214.7 423.188C212.605 424.03 211.494 424.979 211.357 424.817Z" fill="#263238"/>
<path d="M191.705 339.636C191.705 339.636 143.445 321.612 125.681 323.944C115.748 325.248 100.219 332.826 99.035 345.557C97.851 358.288 100.958 375.318 118.13 383.608C135.302 391.898 203.839 422.654 220.123 427.392C236.407 432.129 277.007 443.222 277.007 443.222L292.433 399.266C292.433 399.266 208.285 370.131 203.844 366.874C199.403 363.617 188.152 359.176 188.152 359.176L191.705 339.636Z" fill="#263238"/>
<path d="M359.468 345.613C359.465 345.621 359.352 345.592 359.133 345.526C358.889 345.452 358.569 345.355 358.164 345.232C357.312 344.976 356.052 344.607 354.41 344.216C352.768 343.831 350.742 343.394 348.361 343.164C345.98 342.928 343.242 342.916 340.241 343.174C337.243 343.438 333.967 343.98 330.583 345.014C328.894 345.533 327.172 346.165 325.489 347.002C323.785 347.833 322.032 348.689 320.235 349.566C313.015 353.017 304.953 356.55 296.365 359.942C279.168 366.832 262.66 370.102 250.892 372.776C244.987 374.082 240.214 375.157 236.924 375.94C235.303 376.324 234.033 376.625 233.135 376.837C232.722 376.93 232.396 377.004 232.147 377.06C231.924 377.108 231.808 377.128 231.806 377.119C231.804 377.11 231.915 377.073 232.134 377.009C232.38 376.94 232.702 376.85 233.11 376.736C233.97 376.506 235.236 376.153 236.877 375.743C240.154 374.9 244.917 373.769 250.813 372.417C262.567 369.65 279.031 366.328 296.176 359.458C304.753 356.07 312.81 352.555 320.031 349.133C321.829 348.264 323.584 347.416 325.288 346.592C327.003 345.749 328.749 345.118 330.46 344.601C333.885 343.573 337.19 343.049 340.212 342.807C343.238 342.57 345.995 342.608 348.392 342.874C350.793 343.135 352.82 343.602 354.46 344.019C356.101 344.441 357.355 344.842 358.198 345.131C358.596 345.274 358.912 345.388 359.152 345.475C359.364 345.559 359.471 345.605 359.468 345.613Z" fill="#455A64"/>
<path d="M356.93 339.25C356.913 339.334 355.461 339.071 353.098 338.816C350.736 338.559 347.453 338.366 343.835 338.548C340.216 338.738 336.97 339.267 334.647 339.765C332.322 340.261 330.905 340.671 330.879 340.589C330.868 340.555 331.212 340.418 331.844 340.2C332.475 339.976 333.404 339.702 334.563 339.406C336.88 338.813 340.152 338.22 343.808 338.028C347.463 337.844 350.778 338.098 353.144 338.451C354.328 338.626 355.28 338.804 355.93 338.961C356.582 339.114 356.938 339.215 356.93 339.25Z" fill="#455A64"/>
<path d="M171.403 352.4C171.347 352.473 170.01 351.436 167.697 350.004C165.389 348.569 162.054 346.809 158.145 345.423C154.231 344.048 150.529 343.326 147.832 342.994C145.133 342.658 143.442 342.626 143.444 342.533C143.444 342.497 143.867 342.477 144.633 342.471C145.399 342.456 146.508 342.505 147.873 342.628C150.602 342.868 154.361 343.541 158.319 344.932C162.272 346.333 165.621 348.168 167.896 349.694C169.036 350.455 169.93 351.113 170.517 351.605C171.109 352.091 171.426 352.372 171.403 352.4Z" fill="#455A64"/>
<path d="M195.621 417.959C195.621 417.959 195.751 418.002 195.998 418.103C196.258 418.212 196.62 418.364 197.094 418.563C198.066 418.955 199.47 419.622 201.358 420.346C205.116 421.838 210.672 423.882 217.796 426.225C232.051 430.883 252.544 436.818 277.064 442.994L276.787 443.142C281.357 430.456 286.401 416.457 291.706 401.73L291.851 402.056C285.933 399.627 279.704 397.069 273.375 394.471C232.648 377.709 196.046 362.645 171.139 352.395L171.104 352.381L171.079 352.354C166.918 347.948 163.089 344.068 159.5 340.934C155.91 337.803 152.61 335.385 149.793 333.62C146.991 331.826 144.678 330.696 143.133 329.905C142.356 329.542 141.761 329.265 141.344 329.07C140.943 328.88 140.743 328.771 140.743 328.771C140.743 328.771 140.956 328.849 141.364 329.024C141.785 329.208 142.388 329.471 143.175 329.815C144.736 330.578 147.068 331.684 149.894 333.458C152.734 335.203 156.062 337.607 159.679 340.727C163.296 343.849 167.153 347.722 171.331 352.113L171.271 352.072C196.194 362.284 232.819 377.291 273.572 393.989C279.9 396.589 286.129 399.147 292.046 401.578L292.275 401.672L292.191 401.904C286.87 416.626 281.812 430.619 277.229 443.301L277.156 443.502L276.951 443.45C252.428 437.23 231.948 431.23 217.708 426.492C210.592 424.109 205.046 422.022 201.303 420.484C199.422 419.738 198.026 419.047 197.064 418.632C196.597 418.418 196.239 418.255 195.983 418.138C195.74 418.025 195.621 417.959 195.621 417.959Z" fill="#455A64"/>
<path d="M314.904 185.833C314.904 185.833 328.799 193.838 331.615 203.243C333.325 208.953 346.287 282.007 348.338 296.412C350.408 310.956 346.062 321.489 339.919 326.267C333.776 331.045 315.154 337.412 315.154 337.412L288.956 345.898L281.448 326.787L306.387 290.962L303.974 266.829L314.904 185.833Z" fill="#FF725E"/>
<path d="M287.591 173.21L277.146 167.25C277.146 167.25 267.637 178.374 254.668 177.008C241.699 175.643 234.019 165.717 234.019 165.717L195.345 173.592C192.75 174.112 188.017 175.752 183.492 182.217C178.443 189.431 154.513 221.418 154.513 221.418H137.752C133.133 221.418 128.89 223.972 126.741 228.061C123.88 233.508 120.445 240.793 120.78 243.811C121.347 248.913 120.363 262.924 127.207 267.298C129.378 268.685 137.143 272.847 143.169 272.563C152.06 272.144 162.387 267.514 168.337 263.354C173.375 259.831 185.093 247.653 189.6 242.9L189.594 242.974L192.488 344.432L293.89 341.544L314.904 185.831C314.904 185.833 288.615 173.21 287.591 173.21Z" fill="#FF725E"/>
<path d="M189.24 200.396C189.384 200.394 189.649 212.97 189.832 228.481C190.015 243.997 190.047 256.573 189.903 256.575C189.759 256.577 189.494 244.004 189.311 228.488C189.128 212.976 189.096 200.397 189.24 200.396Z" fill="#263238"/>
<path d="M327.182 282.412C327.187 282.464 326.322 282.55 324.79 282.842C323.256 283.122 321.066 283.729 318.511 284.841C315.951 285.943 313.083 287.655 310.15 289.891C307.22 292.133 304.252 294.919 301.343 298.036C298.441 301.166 295.796 304.265 293.306 307.015C290.821 309.768 288.49 312.173 286.399 314.051C284.313 315.934 282.509 317.327 281.207 318.206C280.57 318.665 280.036 318.965 279.689 319.188C279.336 319.403 279.147 319.509 279.137 319.494C279.127 319.479 279.298 319.344 279.631 319.1C279.959 318.849 280.472 318.523 281.088 318.041C282.348 317.116 284.106 315.687 286.148 313.78C288.196 311.878 290.488 309.459 292.948 306.694C295.413 303.933 298.047 300.823 300.961 297.68C303.885 294.547 306.886 291.75 309.859 289.508C312.834 287.273 315.756 285.573 318.364 284.502C320.967 283.42 323.196 282.863 324.752 282.642C325.524 282.489 326.14 282.485 326.55 282.435C326.964 282.403 327.18 282.394 327.182 282.412Z" fill="#263238"/>
<path d="M329.476 275.54C329.49 275.634 327.941 275.847 325.525 276.517C323.111 277.181 319.846 278.4 316.559 280.35C313.277 282.313 310.651 284.603 308.917 286.41C307.177 288.216 306.253 289.476 306.177 289.419C306.148 289.398 306.358 289.069 306.765 288.489C307.163 287.904 307.804 287.102 308.648 286.158C310.33 284.267 312.961 281.894 316.292 279.902C319.629 277.921 322.968 276.738 325.432 276.16C326.664 275.867 327.674 275.685 328.378 275.614C329.082 275.532 329.471 275.504 329.476 275.54Z" fill="#263238"/>
<g opacity="0.3">
<path d="M140.75 257.731C146.117 259.194 152.564 251.47 157.439 246.638C159.975 244.124 162.612 241.442 163.546 237.995C164.318 235.148 163.814 232.075 162.703 229.342C161.592 226.609 160.806 224.838 159.134 222.408C159.584 226.575 160.609 232.96 159.207 238.198C158.038 242.566 155.269 246.042 152.334 249.339C149.226 252.829 145.552 256.491 140.75 257.731Z" fill="black"/>
</g>
<path d="M163.698 253.313C163.597 253.281 164.219 251.544 164.722 248.633C164.984 247.18 165.156 245.428 165.214 243.481C165.238 241.533 165.128 239.389 164.789 237.165C164.426 234.945 163.87 232.871 163.247 231.024C162.591 229.189 161.888 227.575 161.191 226.274C159.816 223.66 158.689 222.2 158.775 222.138C158.804 222.116 159.095 222.471 159.6 223.135C159.858 223.463 160.16 223.874 160.47 224.379C160.785 224.88 161.173 225.435 161.515 226.099C162.261 227.392 163.01 229.012 163.7 230.864C164.357 232.727 164.936 234.83 165.304 237.084C165.648 239.341 165.745 241.519 165.694 243.494C165.609 245.468 165.395 247.239 165.084 248.7C164.963 249.437 164.765 250.085 164.62 250.658C164.48 251.234 164.32 251.718 164.176 252.11C163.9 252.897 163.732 253.324 163.698 253.313Z" fill="#263238"/>
<path d="M238.242 169.637C238.311 169.773 237.123 170.464 235.88 171.58C234.627 172.686 233.803 173.786 233.676 173.702C233.558 173.636 234.219 172.354 235.534 171.192C236.841 170.021 238.191 169.512 238.242 169.637Z" fill="#263238"/>
<path d="M248.794 175.768C248.904 175.878 247.883 176.974 247.062 178.591C246.224 180.2 245.928 181.668 245.775 181.643C245.642 181.638 245.716 180.055 246.599 178.353C247.469 176.645 248.713 175.663 248.794 175.768Z" fill="#263238"/>
<path d="M266.861 182.129C266.716 182.161 266.304 180.773 265.7 179.104C265.101 177.433 264.533 176.101 264.665 176.033C264.787 175.967 265.577 177.218 266.19 178.927C266.808 180.635 266.997 182.102 266.861 182.129Z" fill="#263238"/>
<path d="M278.486 176.634C278.332 176.669 277.936 174.899 276.791 173.031C275.667 171.149 274.283 169.978 274.386 169.857C274.451 169.744 276.052 170.784 277.237 172.761C278.438 174.728 278.617 176.629 278.486 176.634Z" fill="#263238"/>
<path d="M311.874 209.489C312.017 209.508 310.3 223.366 308.04 240.439C305.779 257.517 303.832 271.342 303.689 271.323C303.547 271.304 305.263 257.449 307.523 240.371C309.783 223.298 311.731 209.471 311.874 209.489Z" fill="#263238"/>
<path d="M159.917 231.929C159.953 231.93 159.94 232.438 159.886 233.361C159.878 233.825 159.796 234.384 159.679 235.03C159.623 235.359 159.565 235.704 159.503 236.068C159.426 236.432 159.315 236.81 159.213 237.211C158.839 238.825 158.114 240.665 157.215 242.657C156.236 244.611 155.031 246.703 153.49 248.707C151.929 250.693 150.245 252.431 148.537 253.808C146.796 255.134 145.118 256.21 143.564 256.807C143.181 256.965 142.822 257.131 142.471 257.258C142.115 257.357 141.776 257.451 141.454 257.541C141.142 257.626 140.848 257.706 140.57 257.782C140.296 257.842 140.035 257.855 139.807 257.888C138.887 257.996 138.382 258.038 138.379 258.002C138.353 257.861 140.444 257.822 143.417 256.471C144.92 255.845 146.544 254.756 148.236 253.436C149.896 252.063 151.541 250.346 153.078 248.39C154.596 246.416 155.795 244.363 156.785 242.447C157.695 240.495 158.446 238.693 158.859 237.114C159.771 233.972 159.799 231.918 159.917 231.929Z" fill="#263238"/>
<g opacity="0.3">
<path d="M308.611 347.904C312.91 345.825 313.888 340.248 314.327 335.492C315.612 321.555 316.898 307.618 318.183 293.681C318.787 287.128 319.082 279.648 314.46 274.963C310.239 270.685 303.534 270.428 297.524 270.445C260.418 270.552 227.649 271.636 190.543 271.743L192.434 336.652L308.611 347.904Z" fill="black"/>
</g>
<path d="M174.551 281.799L178.502 357.082C178.654 359.984 181.079 362.259 184.02 362.257L303.94 362.466C306.886 362.465 309.314 360.178 309.458 357.27L314.034 283.266C314.186 280.193 311.999 276.104 308.886 276.043L180.18 276.055C176.972 275.992 174.385 278.633 174.551 281.799Z" fill="#E0E0E0"/>
<path d="M174.551 281.799C174.551 281.799 174.542 281.705 174.538 281.517C174.524 281.329 174.54 281.049 174.583 280.679C174.69 279.958 175.001 278.822 176.004 277.746C176.502 277.218 177.167 276.707 178.01 276.381C178.844 276.027 179.859 275.949 180.908 275.977C183.021 275.97 185.457 275.962 188.199 275.952C199.181 275.931 215.053 275.902 234.663 275.865C254.283 275.847 277.64 275.826 303.574 275.803C305.195 275.802 306.826 275.801 308.467 275.8C309.286 275.763 310.222 275.964 310.945 276.433C311.687 276.888 312.291 277.526 312.775 278.23C313.728 279.649 314.292 281.338 314.281 283.085C314.182 284.763 314.082 286.451 313.981 288.148C313.564 294.923 313.139 301.841 312.705 308.884C311.836 322.969 310.936 337.552 310.014 352.489L309.841 355.286C309.762 356.225 309.776 357.125 309.61 358.105C309.254 360.035 307.809 361.678 305.994 362.349C305.098 362.707 304.075 362.756 303.179 362.725L300.421 362.72C298.585 362.717 296.757 362.713 294.934 362.71C287.645 362.696 280.462 362.682 273.404 362.668C259.289 362.638 245.674 362.609 232.704 362.582C219.734 362.551 207.41 362.521 195.875 362.494C192.992 362.486 190.157 362.479 187.375 362.472C186.679 362.47 185.987 362.468 185.298 362.467C184.61 362.455 183.927 362.496 183.215 362.401C181.811 362.211 180.508 361.479 179.619 360.414C178.713 359.362 178.268 357.949 178.281 356.625C178.214 355.315 178.147 354.02 178.081 352.738C177.949 350.175 177.821 347.667 177.695 345.218C176.702 325.633 175.898 309.783 175.342 298.817C175.076 293.346 174.869 289.096 174.729 286.2C174.665 284.765 174.616 283.669 174.583 282.918C174.553 282.178 174.551 281.799 174.551 281.799C174.551 281.799 174.589 282.177 174.636 282.915C174.681 283.665 174.747 284.76 174.834 286.194C174.997 289.088 175.237 293.337 175.545 298.806C176.14 309.771 177 325.617 178.063 345.199C178.194 347.648 178.329 350.155 178.466 352.718C178.535 354 178.604 355.295 178.674 356.604C178.669 357.902 179.082 359.164 179.926 360.155C180.754 361.143 181.967 361.821 183.271 361.995C183.913 362.082 184.609 362.043 185.297 362.053C185.986 362.054 186.679 362.054 187.374 362.055C190.157 362.058 192.991 362.06 195.874 362.063C207.409 362.076 219.734 362.089 232.703 362.103C245.673 362.121 259.288 362.139 273.403 362.159C280.461 362.17 287.643 362.181 294.933 362.193C296.755 362.196 298.584 362.199 300.42 362.202L303.178 362.207C304.117 362.236 304.973 362.19 305.81 361.864C307.462 361.253 308.778 359.757 309.099 358.006C309.248 357.152 309.245 356.178 309.321 355.259L309.494 352.462C310.419 337.526 311.323 322.943 312.196 308.858C312.634 301.816 313.064 294.898 313.485 288.123C313.587 286.432 313.688 284.749 313.788 283.076C313.802 281.463 313.267 279.838 312.372 278.51C311.484 277.179 310.077 276.167 308.462 276.289C306.821 276.288 305.19 276.288 303.569 276.287C277.635 276.268 254.279 276.252 234.659 276.238C215.05 276.205 199.178 276.178 188.197 276.16C185.456 276.151 183.02 276.143 180.907 276.137C179.849 276.101 178.884 276.169 178.058 276.507C177.231 276.818 176.576 277.31 176.081 277.823C175.084 278.866 174.759 279.98 174.636 280.691C174.523 281.416 174.579 281.799 174.551 281.799Z" fill="#263238"/>
<path d="M245.181 325.58C249.082 325.58 252.244 322.418 252.244 318.517C252.244 314.616 249.082 311.454 245.181 311.454C241.28 311.454 238.118 314.616 238.118 318.517C238.118 322.418 241.28 325.58 245.181 325.58Z" fill="white"/>
<path d="M252.244 318.517C252.186 318.52 252.213 317.887 251.925 316.817C251.64 315.767 250.925 314.23 249.343 313.049C248.559 312.472 247.576 311.984 246.445 311.791C245.322 311.606 244.057 311.646 242.857 312.109C241.656 312.544 240.511 313.362 239.699 314.493C238.863 315.609 238.393 317.04 238.379 318.516C238.393 319.992 238.863 321.424 239.699 322.54C240.512 323.671 241.657 324.491 242.858 324.925C244.059 325.387 245.323 325.428 246.447 325.243C247.578 325.05 248.561 324.562 249.345 323.985C250.927 322.803 251.642 321.267 251.927 320.217C252.213 319.146 252.186 318.513 252.244 318.517C252.262 318.517 252.272 318.672 252.274 318.97C252.282 319.267 252.245 319.711 252.122 320.266C251.89 321.361 251.204 322.993 249.567 324.278C248.756 324.905 247.724 325.443 246.525 325.668C245.334 325.885 243.985 325.858 242.693 325.377C241.402 324.924 240.167 324.054 239.287 322.843C238.383 321.648 237.87 320.104 237.857 318.516C237.871 316.928 238.383 315.385 239.287 314.191C240.167 312.98 241.402 312.111 242.693 311.658C243.985 311.177 245.334 311.15 246.524 311.367C247.723 311.591 248.755 312.129 249.566 312.756C251.203 314.04 251.889 315.673 252.122 316.768C252.246 317.323 252.282 317.766 252.274 318.064C252.272 318.361 252.262 318.517 252.244 318.517Z" fill="#263238"/>
<path d="M178.59 290.132C178.734 290.127 179.325 302.778 179.91 318.385C180.495 333.998 180.853 346.655 180.71 346.66C180.566 346.665 179.975 334.017 179.39 318.404C178.805 302.797 178.447 290.137 178.59 290.132Z" fill="#263238"/>
<path d="M142.546 191.908C141.845 191.314 144.917 179.491 144.917 179.491C144.917 179.491 136.782 166.218 136.567 161.936C136.353 157.654 139.778 148.877 139.778 148.877L163.114 142.883C163.114 142.883 170.61 156.799 172.107 161.723C173.604 166.647 169.536 183.346 169.536 183.346L165.583 191.91C165.584 191.908 153.663 201.328 142.546 191.908Z" fill="#E58A7B"/>
<path d="M136.612 164.496C136.612 164.496 135.6 162.742 134.154 159.314C132.677 155.81 130.862 152.374 134.154 150.415C136.091 149.262 137.67 149.86 137.67 149.86C137.67 149.86 137.165 146.911 138.927 145.804C140.689 144.697 142.387 145.503 142.387 145.503C142.387 145.503 141.831 141.343 144.368 139.579C147.55 137.366 150.831 139.395 150.831 139.395C150.831 139.395 148.823 121.185 148.648 120.22C148.009 116.679 149.319 113.547 152.842 114.42C154.133 114.74 154.85 116.101 156.364 122.031C157.878 127.961 160.311 138.082 160.311 138.082C160.311 138.082 164.409 145.204 166.345 149.066C168.281 152.929 172.108 161.723 172.426 164.052C173.25 170.077 169.722 178.053 169.722 178.053L144.916 179.492C144.916 179.492 137.557 166.224 136.612 164.496Z" fill="#E58A7B"/>
<path d="M138.16 150.645C138.221 150.606 138.95 151.633 140.08 153.324C140.666 154.216 141.325 155.219 142.042 156.309C142.405 156.872 142.806 157.472 143.108 158.174C143.41 158.863 143.597 159.709 143.4 160.54C143.235 161.355 142.651 162.147 141.833 162.377C141.023 162.629 140.235 162.388 139.611 162.103C138.975 161.81 138.437 161.426 137.954 161.078C137.466 160.728 137.02 160.391 136.618 160.077C135.814 159.448 135.188 158.91 134.768 158.524C134.348 158.138 134.132 157.906 134.155 157.879C134.205 157.82 135.188 158.606 136.838 159.782C137.673 160.34 138.642 161.12 139.808 161.665C140.39 161.92 141.068 162.094 141.678 161.891C142.297 161.711 142.744 161.118 142.892 160.426C143.057 159.73 142.909 159.018 142.637 158.373C142.366 157.726 141.99 157.139 141.636 156.567C140.954 155.455 140.326 154.432 139.768 153.522C138.718 151.78 138.099 150.683 138.16 150.645Z" fill="#6F4C47"/>
<path d="M158.504 152.807C158.37 152.813 158.246 151.03 158.764 148.909C159.271 146.784 160.194 145.255 160.311 145.321C160.449 145.388 159.759 146.975 159.27 149.031C158.768 151.084 158.657 152.811 158.504 152.807Z" fill="#6F4C47"/>
<path d="M168.337 158.131C166.121 155.872 163.132 154.471 160.039 153.8C156.946 153.129 153.741 153.15 150.59 153.437C148.067 153.667 145.185 154.319 144.036 156.577C142.853 158.901 144.276 161.897 146.515 163.234C148.754 164.571 151.522 164.624 154.119 164.388C156.716 164.152 159.335 163.668 161.912 164.069" fill="#E58A7B"/>
<path d="M161.911 164.068C161.905 164.112 161.212 164.003 159.953 164.018C158.693 164.019 156.887 164.248 154.637 164.522C153.51 164.647 152.261 164.751 150.913 164.679C149.574 164.602 148.105 164.353 146.734 163.63C145.356 162.92 144.176 161.635 143.629 160.02C143.347 159.218 143.274 158.315 143.453 157.438C143.659 156.568 144.134 155.742 144.821 155.143C146.205 153.92 147.979 153.528 149.59 153.292C151.226 153.094 152.795 153.014 154.303 153.009C157.314 152.998 160.035 153.443 162.189 154.203C164.35 154.953 165.935 155.958 166.922 156.757C167.42 157.155 167.776 157.498 168.008 157.738C168.236 157.983 168.348 158.118 168.336 158.13C168.301 158.166 167.818 157.654 166.8 156.917C165.789 156.178 164.207 155.242 162.073 154.551C159.946 153.851 157.276 153.451 154.306 153.488C152.825 153.506 151.253 153.598 149.66 153.798C148.093 154.03 146.405 154.432 145.172 155.531C144.556 156.067 144.144 156.792 143.96 157.55C143.804 158.319 143.859 159.125 144.115 159.859C144.608 161.338 145.691 162.54 146.96 163.206C148.239 163.896 149.64 164.156 150.941 164.248C152.25 164.336 153.48 164.256 154.601 164.156C156.843 163.93 158.682 163.753 159.956 163.815C160.592 163.837 161.084 163.901 161.414 163.951C161.744 164.009 161.914 164.05 161.911 164.068Z" fill="#6F4C47"/>
<path d="M138.34 150.929C140.95 154.893 143.254 159.249 145.454 163.454C146.094 164.677 146.771 165.971 147.946 166.695C148.887 167.275 151.222 166.223 152.267 165.864L145.101 149.557" fill="#E58A7B"/>
<path d="M145.1 149.557C145.13 149.544 145.354 149.974 145.737 150.772C146.147 151.655 146.679 152.801 147.324 154.187C148.652 157.094 150.472 161.158 152.503 165.76L152.615 166.014L152.35 166.108C151.576 166.384 150.745 166.733 149.849 166.958C149.495 167.044 149.134 167.113 148.753 167.122C148.564 167.125 148.367 167.118 148.166 167.06C147.962 167.016 147.761 166.888 147.626 166.794C147.022 166.375 146.56 165.819 146.183 165.25C145.446 164.094 144.926 162.933 144.344 161.856C143.218 159.687 142.186 157.746 141.291 156.131C140.399 154.514 139.645 153.224 139.122 152.334C138.599 151.443 138.307 150.951 138.34 150.929C138.367 150.911 138.717 151.366 139.294 152.226C139.872 153.085 140.676 154.351 141.612 155.949C142.55 157.545 143.619 159.474 144.769 161.633C145.36 162.699 145.907 163.884 146.608 164.968C146.967 165.503 147.391 166.004 147.921 166.369C148.371 166.737 149.068 166.602 149.724 166.454C150.572 166.242 151.378 165.906 152.183 165.621L152.03 165.969C150.014 161.36 148.251 157.271 147.007 154.327C146.421 152.915 145.937 151.748 145.564 150.849C145.236 150.027 145.07 149.57 145.1 149.557Z" fill="#6F4C47"/>
<path d="M143.169 144.712C145.472 150.489 147.776 156.266 150.08 162.043C150.569 163.269 151.073 164.521 151.938 165.519C152.803 166.517 154.111 167.23 155.417 167.035C157.217 166.766 158.395 164.856 158.486 163.038C158.577 161.22 157.858 159.473 157.193 157.778C155.126 152.511 153.467 147.083 152.237 141.56" fill="#E58A7B"/>
<path d="M152.236 141.56C152.254 141.556 152.313 141.738 152.41 142.088C152.519 142.494 152.654 143.001 152.82 143.62C153.177 144.949 153.697 146.872 154.428 149.22C155.157 151.568 156.099 154.342 157.289 157.365C157.866 158.871 158.613 160.474 158.736 162.323C158.803 163.235 158.643 164.215 158.214 165.076C157.793 165.933 157.1 166.733 156.137 167.111C155.173 167.497 154.081 167.332 153.234 166.876C152.37 166.43 151.686 165.722 151.194 164.954C150.214 163.393 149.738 161.742 149.103 160.245C147.923 157.229 146.856 154.502 145.95 152.187C145.09 149.938 144.385 148.094 143.866 146.738C143.647 146.135 143.468 145.642 143.324 145.247C143.206 144.904 143.151 144.721 143.168 144.714C143.185 144.707 143.272 144.878 143.422 145.208C143.59 145.594 143.799 146.075 144.055 146.663C144.612 148.003 145.369 149.827 146.292 152.051C147.228 154.354 148.33 157.066 149.549 160.067C150.192 161.557 150.699 163.228 151.62 164.674C152.085 165.392 152.702 166.019 153.472 166.416C154.229 166.819 155.145 166.946 155.947 166.626C156.752 166.313 157.369 165.62 157.749 164.848C158.137 164.066 158.284 163.207 158.227 162.353C158.123 160.636 157.414 159.06 156.842 157.54C155.671 154.493 154.762 151.696 154.076 149.327C153.388 146.957 152.921 145.016 152.624 143.669C152.479 142.995 152.371 142.47 152.309 142.113C152.244 141.754 152.219 141.564 152.236 141.56Z" fill="#6F4C47"/>
<path d="M143.725 185.344C143.725 185.344 127.9 231.987 127.275 234.277C126.65 236.567 130.398 253.226 137.27 257.182C144.142 261.138 157.468 244.688 159.134 238.65C160.8 232.611 159.134 222.408 159.134 222.408L169.802 182.217" fill="#E58A7B"/>
<path d="M159.134 178.094C159.127 178.153 158.544 178.16 157.645 177.899C156.749 177.642 155.559 177.059 154.497 176.089C153.439 175.115 152.755 173.979 152.421 173.109C152.082 172.236 152.04 171.654 152.097 171.642C152.248 171.58 152.797 173.861 154.848 175.705C156.862 177.589 159.183 177.939 159.134 178.094Z" fill="#6F4C47"/>
<path d="M443.32 404.225C443.32 404.369 355.207 404.485 246.54 404.485C137.835 404.485 49.741 404.368 49.741 404.225C49.741 404.081 137.835 403.965 246.54 403.965C355.208 403.964 443.32 404.081 443.32 404.225Z" fill="#263238"/>
<path d="M185.44 111.439H73.204C70.285 111.439 67.918 109.072 67.918 106.153V75.0223C67.918 72.1033 70.284 69.7363 73.204 69.7363H185.44C188.359 69.7363 190.726 72.1033 190.726 75.0223V106.153C190.725 109.073 188.359 111.439 185.44 111.439Z" fill="#FF725E"/>
<path d="M191.52 111.432H83.5929C80.4829 111.432 77.9519 108.902 77.9519 105.791V75.2343C77.9519 72.1243 80.4819 69.5933 83.5929 69.5933H191.52C194.63 69.5933 197.161 72.1243 197.161 75.2343V105.791C197.16 108.902 194.63 111.432 191.52 111.432ZM83.5929 70.5933C81.0339 70.5933 78.9519 72.6753 78.9519 75.2343V105.791C78.9519 108.35 81.0329 110.432 83.5929 110.432H191.52C194.079 110.432 196.161 108.35 196.161 105.791V75.2343C196.161 72.6753 194.08 70.5933 191.52 70.5933H83.5929Z" fill="#FF725E"/>
<path d="M90.501 89.9984C90.501 87.3684 92.521 85.4854 95.238 85.4854C96.746 85.4854 98.006 86.0333 98.828 87.0313L97.531 88.2283C96.945 87.5553 96.21 87.2064 95.337 87.2064C93.704 87.2064 92.545 88.3534 92.545 89.9994C92.545 91.6454 93.704 92.7914 95.337 92.7914C96.21 92.7914 96.945 92.4423 97.531 91.7563L98.828 92.9534C98.005 93.9634 96.746 94.5114 95.225 94.5114C92.52 94.5114 90.501 92.6284 90.501 89.9984Z" fill="white"/>
<path d="M100.182 85.6353H102.202V92.7163H106.578V94.3623H100.182V85.6353Z" fill="white"/>
<path d="M107.708 85.6353H109.728V94.3623H107.708V85.6353Z" fill="white"/>
<path d="M111.246 89.9984C111.246 87.3684 113.266 85.4854 115.983 85.4854C117.491 85.4854 118.751 86.0333 119.573 87.0313L118.276 88.2283C117.69 87.5553 116.955 87.2064 116.082 87.2064C114.449 87.2064 113.29 88.3534 113.29 89.9994C113.29 91.6454 114.449 92.7914 116.082 92.7914C116.955 92.7914 117.69 92.4423 118.276 91.7563L119.573 92.9534C118.75 93.9634 117.491 94.5114 115.97 94.5114C113.266 94.5114 111.246 92.6284 111.246 89.9984Z" fill="white"/>
<path d="M124.107 90.9333L122.935 92.1553V94.3623H120.928V85.6353H122.935V89.7122L126.799 85.6353H129.043L125.428 89.5253L129.255 94.3623H126.899L124.107 90.9333Z" fill="white"/>
<path d="M141.677 85.6353V94.3623H139.657V90.7842H135.693V94.3623H133.673V85.6353H135.693V89.0762H139.657V85.6353H141.677Z" fill="white"/>
<path d="M150.498 92.7412V94.3623H143.741V85.6353H150.336V87.2562H145.749V89.1513H149.8V90.7223H145.749V92.7422L150.498 92.7412Z" fill="white"/>
<path d="M157.662 94.3613L155.979 91.9303H155.879H154.121V94.3613H152.101V85.6343H155.878C158.209 85.6343 159.668 86.8443 159.668 88.8013C159.668 90.1103 159.007 91.0703 157.873 91.5563L159.83 94.3613H157.662ZM155.767 87.2803H154.122V90.3223H155.767C157.001 90.3223 157.624 89.7483 157.624 88.8013C157.624 87.8413 157.001 87.2803 155.767 87.2803Z" fill="white"/>
<path d="M168.017 92.7412V94.3623H161.26V85.6353H167.855V87.2562H163.268V89.1513H167.319V90.7223H163.268V92.7422L168.017 92.7412Z" fill="white"/>
<path d="M192.613 110.506C192.494 110.587 191.551 109.416 190.507 107.89C189.463 106.364 188.712 105.061 188.831 104.98C188.95 104.899 189.892 106.07 190.937 107.596C191.981 109.122 192.732 110.425 192.613 110.506Z" fill="#FF725E"/>
<path d="M196.66 78.2831C196.544 78.3671 195.062 76.5231 193.351 74.1631C191.64 71.8031 190.347 69.8211 190.464 69.7371C190.58 69.6531 192.062 71.4971 193.773 73.8571C195.484 76.2171 196.777 78.1991 196.66 78.2831Z" fill="#FF725E"/>
<path d="M196.23 104.984C196.084 105.085 194.585 102.925 192.939 100.16C192.109 98.7803 191.382 97.5173 190.866 96.5983C190.355 95.6753 190.036 95.1113 190.094 95.0683C190.24 94.9673 191.739 97.1263 193.386 99.8923C194.216 101.272 194.943 102.534 195.459 103.454C195.968 104.377 196.287 104.941 196.23 104.984Z" fill="#FF725E"/>
<path d="M196.691 96.2644C196.544 96.3664 194.944 94.0384 193.169 91.0674C192.275 89.5844 191.49 88.2284 190.933 87.2404C190.38 86.2494 190.036 85.6434 190.093 85.6004C190.24 85.4984 191.84 87.8264 193.615 90.7974C194.509 92.2804 195.294 93.6364 195.851 94.6234C196.404 95.6164 196.748 96.2214 196.691 96.2644Z" fill="#FF725E"/>
<path d="M196.678 87.6344C196.53 87.7364 194.923 85.3954 193.138 82.4084C192.239 80.9174 191.449 79.5544 190.889 78.5614C190.333 77.5644 189.987 76.9564 190.044 76.9134C190.191 76.8114 191.799 79.1524 193.584 82.1394C194.483 83.6304 195.272 84.9934 195.833 85.9854C196.389 86.9824 196.735 87.5914 196.678 87.6344Z" fill="#FF725E"/>
<path d="M64.8899 76.2C64.8539 76.339 62.0099 75.715 58.5399 74.806C55.0689 73.897 52.2849 73.048 52.3219 72.908C52.3579 72.769 55.2009 73.393 58.6719 74.302C62.1419 75.212 64.9259 76.061 64.8899 76.2Z" fill="#263238"/>
<path d="M66.1 68.6921C65.989 68.7831 63.013 65.3361 59.454 60.9941C55.894 56.6501 53.099 53.0561 53.211 52.9651C53.322 52.8741 56.297 56.3201 59.857 60.6641C63.416 65.0061 66.211 68.6011 66.1 68.6921Z" fill="#263238"/>
<path d="M75.3739 65.0734C75.2449 65.1144 74.4309 62.7934 73.9879 59.8044C73.5339 56.8154 73.6319 54.3584 73.7669 54.3604C73.9189 54.3574 74.0549 56.7794 74.5029 59.7274C74.9399 62.6754 75.5199 65.0314 75.3739 65.0734Z" fill="#263238"/>
</svg>
